<mxfile host="Electron" modified="2024-03-06T08:02:27.793Z" agent="Mozilla/5.0 (Windows NT 10.0; Win64; x64) AppleWebKit/537.36 (KHTML, like Gecko) draw.io/23.1.5 Chrome/120.0.6099.109 Electron/28.1.0 Safari/537.36" etag="JwlCfGtP_qDVQ6Wmbhgk" version="23.1.5" type="device">
  <diagram name="Page-1" id="ZJziXxxdAj8SFKqpZ-4v">
    <mxGraphModel dx="1687" dy="984" grid="1" gridSize="10" guides="1" tooltips="1" connect="1" arrows="1" fold="1" page="1" pageScale="1" pageWidth="850" pageHeight="1100" background="none" math="0" shadow="0">
      <root>
        <mxCell id="0" />
        <mxCell id="1" parent="0" />
        <mxCell id="44k4_VBJVtMnTsJ_2v9P-7" style="edgeStyle=orthogonalEdgeStyle;rounded=0;orthogonalLoop=1;jettySize=auto;html=1;exitX=0.5;exitY=1;exitDx=0;exitDy=0;" parent="1" edge="1">
          <mxGeometry relative="1" as="geometry">
            <mxPoint x="440" y="210" as="sourcePoint" />
            <mxPoint x="440" y="210" as="targetPoint" />
          </mxGeometry>
        </mxCell>
        <mxCell id="44k4_VBJVtMnTsJ_2v9P-68" value="&lt;b&gt;&lt;font style=&quot;font-size: 18px;&quot;&gt;Flowchart Admin Sekolah&lt;/font&gt;&lt;/b&gt;" style="text;html=1;align=center;verticalAlign=middle;resizable=0;points=[];autosize=1;strokeColor=none;fillColor=none;" parent="1" vertex="1">
          <mxGeometry x="285" y="430" width="240" height="40" as="geometry" />
        </mxCell>
        <mxCell id="6W6a73ZQ8LbhypEmX5_w-3" value="Mulai" style="rounded=1;whiteSpace=wrap;html=1;" parent="1" vertex="1">
          <mxGeometry x="372.5" y="590" width="65" height="20" as="geometry" />
        </mxCell>
        <mxCell id="kdsUeCvhNcCIAWtushqa-12" style="edgeStyle=orthogonalEdgeStyle;rounded=0;orthogonalLoop=1;jettySize=auto;html=1;exitX=0.5;exitY=1;exitDx=0;exitDy=0;entryX=0.5;entryY=0;entryDx=0;entryDy=0;" parent="1" target="kdsUeCvhNcCIAWtushqa-11" edge="1">
          <mxGeometry relative="1" as="geometry">
            <mxPoint x="405" y="610" as="sourcePoint" />
          </mxGeometry>
        </mxCell>
        <mxCell id="kdsUeCvhNcCIAWtushqa-14" style="edgeStyle=orthogonalEdgeStyle;rounded=0;orthogonalLoop=1;jettySize=auto;html=1;exitX=0.5;exitY=1;exitDx=0;exitDy=0;entryX=0.5;entryY=0;entryDx=0;entryDy=0;" parent="1" source="kdsUeCvhNcCIAWtushqa-11" target="kdsUeCvhNcCIAWtushqa-13" edge="1">
          <mxGeometry relative="1" as="geometry" />
        </mxCell>
        <mxCell id="kdsUeCvhNcCIAWtushqa-11" value="input username&amp;nbsp;&lt;br&gt;dan passoword&amp;nbsp;&lt;br&gt;yang sudah&lt;br&gt;terdaftar" style="shape=parallelogram;perimeter=parallelogramPerimeter;whiteSpace=wrap;html=1;fixedSize=1;" parent="1" vertex="1">
          <mxGeometry x="340" y="630" width="130" height="60" as="geometry" />
        </mxCell>
        <mxCell id="kdsUeCvhNcCIAWtushqa-16" style="edgeStyle=orthogonalEdgeStyle;rounded=0;orthogonalLoop=1;jettySize=auto;html=1;exitX=0.5;exitY=1;exitDx=0;exitDy=0;entryX=0.5;entryY=0;entryDx=0;entryDy=0;" parent="1" source="kdsUeCvhNcCIAWtushqa-13" target="kdsUeCvhNcCIAWtushqa-15" edge="1">
          <mxGeometry relative="1" as="geometry" />
        </mxCell>
        <mxCell id="kdsUeCvhNcCIAWtushqa-13" value="Sistem Melakukan&lt;br&gt;Validasi" style="rounded=0;whiteSpace=wrap;html=1;" parent="1" vertex="1">
          <mxGeometry x="345" y="710" width="120" height="60" as="geometry" />
        </mxCell>
        <mxCell id="kdsUeCvhNcCIAWtushqa-18" style="edgeStyle=orthogonalEdgeStyle;rounded=0;orthogonalLoop=1;jettySize=auto;html=1;exitX=1;exitY=0.5;exitDx=0;exitDy=0;entryX=0;entryY=0.5;entryDx=0;entryDy=0;" parent="1" source="kdsUeCvhNcCIAWtushqa-15" target="kdsUeCvhNcCIAWtushqa-17" edge="1">
          <mxGeometry relative="1" as="geometry" />
        </mxCell>
        <mxCell id="kdsUeCvhNcCIAWtushqa-21" value="" style="edgeStyle=orthogonalEdgeStyle;rounded=0;orthogonalLoop=1;jettySize=auto;html=1;" parent="1" source="kdsUeCvhNcCIAWtushqa-15" target="kdsUeCvhNcCIAWtushqa-17" edge="1">
          <mxGeometry relative="1" as="geometry" />
        </mxCell>
        <mxCell id="kdsUeCvhNcCIAWtushqa-24" style="edgeStyle=orthogonalEdgeStyle;rounded=0;orthogonalLoop=1;jettySize=auto;html=1;exitX=0.5;exitY=1;exitDx=0;exitDy=0;entryX=0.5;entryY=0;entryDx=0;entryDy=0;" parent="1" source="kdsUeCvhNcCIAWtushqa-15" target="kdsUeCvhNcCIAWtushqa-23" edge="1">
          <mxGeometry relative="1" as="geometry" />
        </mxCell>
        <mxCell id="kdsUeCvhNcCIAWtushqa-15" value="Apakah &lt;br&gt;Password&lt;br&gt;&amp;nbsp;dan Username Benar" style="rhombus;whiteSpace=wrap;html=1;" parent="1" vertex="1">
          <mxGeometry x="355" y="790" width="100" height="100" as="geometry" />
        </mxCell>
        <mxCell id="kdsUeCvhNcCIAWtushqa-28" style="edgeStyle=orthogonalEdgeStyle;rounded=0;orthogonalLoop=1;jettySize=auto;html=1;exitX=0.5;exitY=0;exitDx=0;exitDy=0;entryX=1;entryY=0.5;entryDx=0;entryDy=0;" parent="1" source="kdsUeCvhNcCIAWtushqa-17" target="kdsUeCvhNcCIAWtushqa-13" edge="1">
          <mxGeometry relative="1" as="geometry" />
        </mxCell>
        <mxCell id="kdsUeCvhNcCIAWtushqa-17" value="Input Ulang&amp;nbsp;&lt;br&gt;Username&lt;br&gt;dan Passowrd" style="shape=parallelogram;perimeter=parallelogramPerimeter;whiteSpace=wrap;html=1;fixedSize=1;" parent="1" vertex="1">
          <mxGeometry x="535" y="810" width="130" height="60" as="geometry" />
        </mxCell>
        <mxCell id="kdsUeCvhNcCIAWtushqa-22" value="tidak" style="text;html=1;align=center;verticalAlign=middle;resizable=0;points=[];autosize=1;strokeColor=none;fillColor=none;" parent="1" vertex="1">
          <mxGeometry x="435" y="808" width="50" height="30" as="geometry" />
        </mxCell>
        <mxCell id="kdsUeCvhNcCIAWtushqa-157" style="edgeStyle=orthogonalEdgeStyle;rounded=0;orthogonalLoop=1;jettySize=auto;html=1;exitX=0.5;exitY=1;exitDx=0;exitDy=0;entryX=0.5;entryY=0;entryDx=0;entryDy=0;" parent="1" source="kdsUeCvhNcCIAWtushqa-23" target="kdsUeCvhNcCIAWtushqa-84" edge="1">
          <mxGeometry relative="1" as="geometry" />
        </mxCell>
        <mxCell id="kdsUeCvhNcCIAWtushqa-23" value="Masuk Ke&lt;br&gt;&amp;nbsp;beranda&lt;br&gt;" style="shape=parallelogram;perimeter=parallelogramPerimeter;whiteSpace=wrap;html=1;fixedSize=1;" parent="1" vertex="1">
          <mxGeometry x="340" y="910" width="130" height="60" as="geometry" />
        </mxCell>
        <mxCell id="kdsUeCvhNcCIAWtushqa-63" value="Selesai" style="rounded=1;whiteSpace=wrap;html=1;" parent="1" vertex="1">
          <mxGeometry x="371.5" y="2441" width="65" height="20" as="geometry" />
        </mxCell>
        <mxCell id="O3Z_m1BVMjGVqySpPHet-2" style="edgeStyle=orthogonalEdgeStyle;rounded=0;orthogonalLoop=1;jettySize=auto;html=1;exitX=1;exitY=0.5;exitDx=0;exitDy=0;entryX=0;entryY=0.5;entryDx=0;entryDy=0;" parent="1" source="kdsUeCvhNcCIAWtushqa-84" target="kdsUeCvhNcCIAWtushqa-100" edge="1">
          <mxGeometry relative="1" as="geometry" />
        </mxCell>
        <mxCell id="fFBBc6yk1IbqUkKiWWpn-29" style="edgeStyle=orthogonalEdgeStyle;rounded=0;orthogonalLoop=1;jettySize=auto;html=1;exitX=0;exitY=0.5;exitDx=0;exitDy=0;entryX=0;entryY=0.5;entryDx=0;entryDy=0;" parent="1" source="kdsUeCvhNcCIAWtushqa-84" target="O3Z_m1BVMjGVqySpPHet-5" edge="1">
          <mxGeometry relative="1" as="geometry">
            <Array as="points">
              <mxPoint x="210" y="1060" />
              <mxPoint x="210" y="1771" />
            </Array>
          </mxGeometry>
        </mxCell>
        <mxCell id="kdsUeCvhNcCIAWtushqa-84" value="Ingin &lt;br&gt;Pergi&amp;nbsp;ke&amp;nbsp;&lt;br&gt;&amp;nbsp;data guru" style="rhombus;whiteSpace=wrap;html=1;" parent="1" vertex="1">
          <mxGeometry x="337" y="1000" width="130" height="120" as="geometry" />
        </mxCell>
        <mxCell id="fFBBc6yk1IbqUkKiWWpn-28" style="edgeStyle=orthogonalEdgeStyle;rounded=0;orthogonalLoop=1;jettySize=auto;html=1;exitX=0.5;exitY=1;exitDx=0;exitDy=0;entryX=0.5;entryY=0;entryDx=0;entryDy=0;" parent="1" source="kdsUeCvhNcCIAWtushqa-100" target="fFBBc6yk1IbqUkKiWWpn-3" edge="1">
          <mxGeometry relative="1" as="geometry" />
        </mxCell>
        <mxCell id="kdsUeCvhNcCIAWtushqa-100" value="melihat semua data guru" style="rounded=0;whiteSpace=wrap;html=1;" parent="1" vertex="1">
          <mxGeometry x="660" y="1000" width="120" height="60" as="geometry" />
        </mxCell>
        <mxCell id="kdsUeCvhNcCIAWtushqa-173" style="edgeStyle=orthogonalEdgeStyle;rounded=0;orthogonalLoop=1;jettySize=auto;html=1;exitX=0.5;exitY=1;exitDx=0;exitDy=0;entryX=0.5;entryY=0;entryDx=0;entryDy=0;" parent="1" target="kdsUeCvhNcCIAWtushqa-164" edge="1">
          <mxGeometry relative="1" as="geometry">
            <mxPoint x="401.5" y="1801" as="sourcePoint" />
          </mxGeometry>
        </mxCell>
        <mxCell id="O3Z_m1BVMjGVqySpPHet-10" style="edgeStyle=orthogonalEdgeStyle;rounded=0;orthogonalLoop=1;jettySize=auto;html=1;exitX=0.5;exitY=1;exitDx=0;exitDy=0;entryX=0.5;entryY=0;entryDx=0;entryDy=0;" parent="1" source="kdsUeCvhNcCIAWtushqa-148" target="kdsUeCvhNcCIAWtushqa-133" edge="1">
          <mxGeometry relative="1" as="geometry" />
        </mxCell>
        <mxCell id="kdsUeCvhNcCIAWtushqa-148" value="Selesai &lt;br&gt;Menggunakan Akun" style="rounded=0;whiteSpace=wrap;html=1;" parent="1" vertex="1">
          <mxGeometry x="344" y="2231" width="120" height="60" as="geometry" />
        </mxCell>
        <mxCell id="kdsUeCvhNcCIAWtushqa-171" style="edgeStyle=orthogonalEdgeStyle;rounded=0;orthogonalLoop=1;jettySize=auto;html=1;exitX=0.5;exitY=1;exitDx=0;exitDy=0;entryX=0.5;entryY=0;entryDx=0;entryDy=0;" parent="1" source="kdsUeCvhNcCIAWtushqa-164" target="kdsUeCvhNcCIAWtushqa-166" edge="1">
          <mxGeometry relative="1" as="geometry" />
        </mxCell>
        <mxCell id="kdsUeCvhNcCIAWtushqa-164" value="Membuat Laporan" style="shape=parallelogram;perimeter=parallelogramPerimeter;whiteSpace=wrap;html=1;fixedSize=1;" parent="1" vertex="1">
          <mxGeometry x="336" y="1831" width="130" height="60" as="geometry" />
        </mxCell>
        <mxCell id="kdsUeCvhNcCIAWtushqa-170" style="edgeStyle=orthogonalEdgeStyle;rounded=0;orthogonalLoop=1;jettySize=auto;html=1;exitX=0.5;exitY=1;exitDx=0;exitDy=0;entryX=0.5;entryY=0;entryDx=0;entryDy=0;" parent="1" source="kdsUeCvhNcCIAWtushqa-166" target="kdsUeCvhNcCIAWtushqa-168" edge="1">
          <mxGeometry relative="1" as="geometry" />
        </mxCell>
        <mxCell id="kdsUeCvhNcCIAWtushqa-166" value="Laporan di buat" style="rounded=0;whiteSpace=wrap;html=1;" parent="1" vertex="1">
          <mxGeometry x="341.5" y="1921" width="120" height="60" as="geometry" />
        </mxCell>
        <mxCell id="kdsUeCvhNcCIAWtushqa-175" style="edgeStyle=orthogonalEdgeStyle;rounded=0;orthogonalLoop=1;jettySize=auto;html=1;exitX=0.5;exitY=1;exitDx=0;exitDy=0;entryX=0.5;entryY=0;entryDx=0;entryDy=0;" parent="1" source="kdsUeCvhNcCIAWtushqa-168" target="kdsUeCvhNcCIAWtushqa-174" edge="1">
          <mxGeometry relative="1" as="geometry" />
        </mxCell>
        <mxCell id="kdsUeCvhNcCIAWtushqa-168" value="Laporan selesai" style="shape=parallelogram;perimeter=parallelogramPerimeter;whiteSpace=wrap;html=1;fixedSize=1;" parent="1" vertex="1">
          <mxGeometry x="336.5" y="2011" width="130" height="60" as="geometry" />
        </mxCell>
        <mxCell id="kdsUeCvhNcCIAWtushqa-183" style="edgeStyle=orthogonalEdgeStyle;rounded=0;orthogonalLoop=1;jettySize=auto;html=1;exitX=1;exitY=0.5;exitDx=0;exitDy=0;entryX=0;entryY=0.5;entryDx=0;entryDy=0;" parent="1" source="kdsUeCvhNcCIAWtushqa-174" target="kdsUeCvhNcCIAWtushqa-182" edge="1">
          <mxGeometry relative="1" as="geometry" />
        </mxCell>
        <mxCell id="O3Z_m1BVMjGVqySpPHet-11" style="edgeStyle=orthogonalEdgeStyle;rounded=0;orthogonalLoop=1;jettySize=auto;html=1;exitX=0.5;exitY=1;exitDx=0;exitDy=0;entryX=0.5;entryY=0;entryDx=0;entryDy=0;" parent="1" source="kdsUeCvhNcCIAWtushqa-174" target="kdsUeCvhNcCIAWtushqa-148" edge="1">
          <mxGeometry relative="1" as="geometry" />
        </mxCell>
        <mxCell id="oZBNPP8uSdhM4H_svNcY-5" value="" style="edgeStyle=orthogonalEdgeStyle;rounded=0;orthogonalLoop=1;jettySize=auto;html=1;" parent="1" source="kdsUeCvhNcCIAWtushqa-174" target="kdsUeCvhNcCIAWtushqa-148" edge="1">
          <mxGeometry relative="1" as="geometry" />
        </mxCell>
        <mxCell id="kdsUeCvhNcCIAWtushqa-174" value="Ingin Logout?" style="rhombus;whiteSpace=wrap;html=1;" parent="1" vertex="1">
          <mxGeometry x="354" y="2101" width="100" height="100" as="geometry" />
        </mxCell>
        <mxCell id="kdsUeCvhNcCIAWtushqa-184" style="edgeStyle=orthogonalEdgeStyle;rounded=0;orthogonalLoop=1;jettySize=auto;html=1;exitX=0.5;exitY=1;exitDx=0;exitDy=0;entryX=1;entryY=0.5;entryDx=0;entryDy=0;" parent="1" source="kdsUeCvhNcCIAWtushqa-182" target="kdsUeCvhNcCIAWtushqa-63" edge="1">
          <mxGeometry relative="1" as="geometry" />
        </mxCell>
        <mxCell id="kdsUeCvhNcCIAWtushqa-182" value="Login Tersimpan di perangkat" style="rounded=0;whiteSpace=wrap;html=1;" parent="1" vertex="1">
          <mxGeometry x="549" y="2121" width="120" height="60" as="geometry" />
        </mxCell>
        <mxCell id="O3Z_m1BVMjGVqySpPHet-5" value="Balik Ke beranda" style="rounded=0;whiteSpace=wrap;html=1;" parent="1" vertex="1">
          <mxGeometry x="341.5" y="1741" width="120" height="60" as="geometry" />
        </mxCell>
        <mxCell id="O3Z_m1BVMjGVqySpPHet-9" style="edgeStyle=orthogonalEdgeStyle;rounded=0;orthogonalLoop=1;jettySize=auto;html=1;exitX=0.5;exitY=1;exitDx=0;exitDy=0;entryX=0.5;entryY=0;entryDx=0;entryDy=0;" parent="1" source="kdsUeCvhNcCIAWtushqa-133" edge="1">
          <mxGeometry relative="1" as="geometry">
            <mxPoint x="404" y="2441" as="targetPoint" />
          </mxGeometry>
        </mxCell>
        <mxCell id="kdsUeCvhNcCIAWtushqa-133" value="Logout akun" style="shape=parallelogram;perimeter=parallelogramPerimeter;whiteSpace=wrap;html=1;fixedSize=1;" parent="1" vertex="1">
          <mxGeometry x="339" y="2331" width="130" height="60" as="geometry" />
        </mxCell>
        <mxCell id="oZBNPP8uSdhM4H_svNcY-6" value="ya" style="text;html=1;align=center;verticalAlign=middle;resizable=0;points=[];autosize=1;strokeColor=none;fillColor=none;" parent="1" vertex="1">
          <mxGeometry x="394" y="2197" width="40" height="30" as="geometry" />
        </mxCell>
        <mxCell id="oZBNPP8uSdhM4H_svNcY-7" value="tidak" style="text;html=1;align=center;verticalAlign=middle;resizable=0;points=[];autosize=1;strokeColor=none;fillColor=none;" parent="1" vertex="1">
          <mxGeometry x="443" y="2126" width="50" height="30" as="geometry" />
        </mxCell>
        <mxCell id="oZBNPP8uSdhM4H_svNcY-12" value="ya" style="text;html=1;align=center;verticalAlign=middle;resizable=0;points=[];autosize=1;strokeColor=none;fillColor=none;" parent="1" vertex="1">
          <mxGeometry x="465" y="1026" width="40" height="30" as="geometry" />
        </mxCell>
        <mxCell id="oZBNPP8uSdhM4H_svNcY-13" value="tidak" style="text;html=1;align=center;verticalAlign=middle;resizable=0;points=[];autosize=1;strokeColor=none;fillColor=none;" parent="1" vertex="1">
          <mxGeometry x="280" y="1020" width="50" height="30" as="geometry" />
        </mxCell>
        <mxCell id="oZBNPP8uSdhM4H_svNcY-14" value="ya" style="text;html=1;align=center;verticalAlign=middle;resizable=0;points=[];autosize=1;strokeColor=none;fillColor=none;" parent="1" vertex="1">
          <mxGeometry x="400" y="878" width="40" height="30" as="geometry" />
        </mxCell>
        <mxCell id="fFBBc6yk1IbqUkKiWWpn-2" style="edgeStyle=orthogonalEdgeStyle;rounded=0;orthogonalLoop=1;jettySize=auto;html=1;exitX=0.5;exitY=1;exitDx=0;exitDy=0;entryX=0.5;entryY=0;entryDx=0;entryDy=0;" parent="1" source="fFBBc6yk1IbqUkKiWWpn-3" target="fFBBc6yk1IbqUkKiWWpn-5" edge="1">
          <mxGeometry relative="1" as="geometry" />
        </mxCell>
        <mxCell id="fFBBc6yk1IbqUkKiWWpn-3" value="Apakah ingin&lt;br&gt;Tambah Data?" style="rhombus;whiteSpace=wrap;html=1;" parent="1" vertex="1">
          <mxGeometry x="670" y="1080" width="100" height="100" as="geometry" />
        </mxCell>
        <mxCell id="fFBBc6yk1IbqUkKiWWpn-4" style="edgeStyle=orthogonalEdgeStyle;rounded=0;orthogonalLoop=1;jettySize=auto;html=1;exitX=0.5;exitY=1;exitDx=0;exitDy=0;entryX=0.5;entryY=0;entryDx=0;entryDy=0;" parent="1" source="fFBBc6yk1IbqUkKiWWpn-5" target="fFBBc6yk1IbqUkKiWWpn-7" edge="1">
          <mxGeometry relative="1" as="geometry" />
        </mxCell>
        <mxCell id="fFBBc6yk1IbqUkKiWWpn-5" value="Input data yang&lt;br&gt;&amp;nbsp;harus di isi" style="shape=parallelogram;perimeter=parallelogramPerimeter;whiteSpace=wrap;html=1;fixedSize=1;" parent="1" vertex="1">
          <mxGeometry x="655" y="1200" width="130" height="60" as="geometry" />
        </mxCell>
        <mxCell id="fFBBc6yk1IbqUkKiWWpn-6" style="edgeStyle=orthogonalEdgeStyle;rounded=0;orthogonalLoop=1;jettySize=auto;html=1;exitX=0.5;exitY=1;exitDx=0;exitDy=0;entryX=0.5;entryY=0;entryDx=0;entryDy=0;" parent="1" source="fFBBc6yk1IbqUkKiWWpn-7" target="fFBBc6yk1IbqUkKiWWpn-9" edge="1">
          <mxGeometry relative="1" as="geometry" />
        </mxCell>
        <mxCell id="fFBBc6yk1IbqUkKiWWpn-7" value="Menyimpan data" style="rounded=0;whiteSpace=wrap;html=1;" parent="1" vertex="1">
          <mxGeometry x="660" y="1280" width="120" height="60" as="geometry" />
        </mxCell>
        <mxCell id="fFBBc6yk1IbqUkKiWWpn-8" style="edgeStyle=orthogonalEdgeStyle;rounded=0;orthogonalLoop=1;jettySize=auto;html=1;exitX=0.5;exitY=1;exitDx=0;exitDy=0;entryX=0.5;entryY=0;entryDx=0;entryDy=0;" parent="1" source="fFBBc6yk1IbqUkKiWWpn-9" target="fFBBc6yk1IbqUkKiWWpn-11" edge="1">
          <mxGeometry relative="1" as="geometry" />
        </mxCell>
        <mxCell id="fFBBc6yk1IbqUkKiWWpn-9" value="Data berhasil &lt;br&gt;tersimpan" style="shape=parallelogram;perimeter=parallelogramPerimeter;whiteSpace=wrap;html=1;fixedSize=1;" parent="1" vertex="1">
          <mxGeometry x="655" y="1370" width="130" height="60" as="geometry" />
        </mxCell>
        <mxCell id="fFBBc6yk1IbqUkKiWWpn-10" style="edgeStyle=orthogonalEdgeStyle;rounded=0;orthogonalLoop=1;jettySize=auto;html=1;exitX=0.5;exitY=1;exitDx=0;exitDy=0;entryX=0.5;entryY=0;entryDx=0;entryDy=0;" parent="1" source="fFBBc6yk1IbqUkKiWWpn-11" target="fFBBc6yk1IbqUkKiWWpn-13" edge="1">
          <mxGeometry relative="1" as="geometry" />
        </mxCell>
        <mxCell id="fFBBc6yk1IbqUkKiWWpn-34" style="edgeStyle=orthogonalEdgeStyle;rounded=0;orthogonalLoop=1;jettySize=auto;html=1;exitX=0;exitY=0.5;exitDx=0;exitDy=0;entryX=0.25;entryY=0;entryDx=0;entryDy=0;" parent="1" source="fFBBc6yk1IbqUkKiWWpn-11" target="O3Z_m1BVMjGVqySpPHet-5" edge="1">
          <mxGeometry relative="1" as="geometry" />
        </mxCell>
        <mxCell id="fFBBc6yk1IbqUkKiWWpn-11" value="ingin&lt;br&gt;Edit data?" style="rhombus;whiteSpace=wrap;html=1;" parent="1" vertex="1">
          <mxGeometry x="670" y="1460" width="100" height="100" as="geometry" />
        </mxCell>
        <mxCell id="fFBBc6yk1IbqUkKiWWpn-12" style="edgeStyle=orthogonalEdgeStyle;rounded=0;orthogonalLoop=1;jettySize=auto;html=1;exitX=0.5;exitY=1;exitDx=0;exitDy=0;entryX=0.5;entryY=0;entryDx=0;entryDy=0;" parent="1" source="fFBBc6yk1IbqUkKiWWpn-13" target="fFBBc6yk1IbqUkKiWWpn-14" edge="1">
          <mxGeometry relative="1" as="geometry" />
        </mxCell>
        <mxCell id="fFBBc6yk1IbqUkKiWWpn-13" value="Ubah data yang &lt;br&gt;dipilih" style="shape=parallelogram;perimeter=parallelogramPerimeter;whiteSpace=wrap;html=1;fixedSize=1;" parent="1" vertex="1">
          <mxGeometry x="655" y="1610" width="130" height="60" as="geometry" />
        </mxCell>
        <mxCell id="fFBBc6yk1IbqUkKiWWpn-30" style="edgeStyle=orthogonalEdgeStyle;rounded=0;orthogonalLoop=1;jettySize=auto;html=1;exitX=1;exitY=0.5;exitDx=0;exitDy=0;entryX=0;entryY=0.5;entryDx=0;entryDy=0;" parent="1" source="fFBBc6yk1IbqUkKiWWpn-14" target="fFBBc6yk1IbqUkKiWWpn-16" edge="1">
          <mxGeometry relative="1" as="geometry" />
        </mxCell>
        <mxCell id="fFBBc6yk1IbqUkKiWWpn-14" value="Data berhasil diubah" style="rounded=0;whiteSpace=wrap;html=1;" parent="1" vertex="1">
          <mxGeometry x="660" y="1723" width="120" height="60" as="geometry" />
        </mxCell>
        <mxCell id="fFBBc6yk1IbqUkKiWWpn-15" style="edgeStyle=orthogonalEdgeStyle;rounded=0;orthogonalLoop=1;jettySize=auto;html=1;exitX=0.5;exitY=1;exitDx=0;exitDy=0;entryX=0.5;entryY=0;entryDx=0;entryDy=0;" parent="1" source="fFBBc6yk1IbqUkKiWWpn-16" target="fFBBc6yk1IbqUkKiWWpn-18" edge="1">
          <mxGeometry relative="1" as="geometry" />
        </mxCell>
        <mxCell id="fFBBc6yk1IbqUkKiWWpn-35" style="edgeStyle=orthogonalEdgeStyle;rounded=0;orthogonalLoop=1;jettySize=auto;html=1;exitX=0.5;exitY=0;exitDx=0;exitDy=0;entryX=0.75;entryY=0;entryDx=0;entryDy=0;" parent="1" source="fFBBc6yk1IbqUkKiWWpn-16" target="O3Z_m1BVMjGVqySpPHet-5" edge="1">
          <mxGeometry relative="1" as="geometry">
            <Array as="points">
              <mxPoint x="925" y="1690" />
              <mxPoint x="432" y="1690" />
            </Array>
          </mxGeometry>
        </mxCell>
        <mxCell id="fFBBc6yk1IbqUkKiWWpn-16" value="ingin &lt;br&gt;Hapus data?" style="rhombus;whiteSpace=wrap;html=1;" parent="1" vertex="1">
          <mxGeometry x="875" y="1703" width="100" height="100" as="geometry" />
        </mxCell>
        <mxCell id="fFBBc6yk1IbqUkKiWWpn-17" style="edgeStyle=orthogonalEdgeStyle;rounded=0;orthogonalLoop=1;jettySize=auto;html=1;exitX=0.5;exitY=1;exitDx=0;exitDy=0;entryX=0.5;entryY=0;entryDx=0;entryDy=0;" parent="1" source="fFBBc6yk1IbqUkKiWWpn-18" target="fFBBc6yk1IbqUkKiWWpn-20" edge="1">
          <mxGeometry relative="1" as="geometry" />
        </mxCell>
        <mxCell id="fFBBc6yk1IbqUkKiWWpn-18" value="pilih data yang&amp;nbsp;&lt;br&gt;ingin dhapus" style="shape=parallelogram;perimeter=parallelogramPerimeter;whiteSpace=wrap;html=1;fixedSize=1;" parent="1" vertex="1">
          <mxGeometry x="860" y="1823" width="130" height="60" as="geometry" />
        </mxCell>
        <mxCell id="fFBBc6yk1IbqUkKiWWpn-19" style="edgeStyle=orthogonalEdgeStyle;rounded=0;orthogonalLoop=1;jettySize=auto;html=1;exitX=0.5;exitY=1;exitDx=0;exitDy=0;entryX=0.5;entryY=0;entryDx=0;entryDy=0;" parent="1" source="fFBBc6yk1IbqUkKiWWpn-20" target="fFBBc6yk1IbqUkKiWWpn-21" edge="1">
          <mxGeometry relative="1" as="geometry" />
        </mxCell>
        <mxCell id="fFBBc6yk1IbqUkKiWWpn-20" value="Menghapus data" style="rounded=0;whiteSpace=wrap;html=1;" parent="1" vertex="1">
          <mxGeometry x="865" y="1908" width="120" height="50" as="geometry" />
        </mxCell>
        <mxCell id="fFBBc6yk1IbqUkKiWWpn-33" style="edgeStyle=orthogonalEdgeStyle;rounded=0;orthogonalLoop=1;jettySize=auto;html=1;exitX=0.5;exitY=1;exitDx=0;exitDy=0;entryX=1;entryY=0.5;entryDx=0;entryDy=0;" parent="1" source="fFBBc6yk1IbqUkKiWWpn-21" target="O3Z_m1BVMjGVqySpPHet-5" edge="1">
          <mxGeometry relative="1" as="geometry">
            <Array as="points">
              <mxPoint x="925" y="2073" />
              <mxPoint x="600" y="2073" />
              <mxPoint x="600" y="1771" />
            </Array>
          </mxGeometry>
        </mxCell>
        <mxCell id="fFBBc6yk1IbqUkKiWWpn-21" value="Data berhasil &lt;br&gt;di hapus" style="shape=parallelogram;perimeter=parallelogramPerimeter;whiteSpace=wrap;html=1;fixedSize=1;" parent="1" vertex="1">
          <mxGeometry x="860" y="1993" width="130" height="60" as="geometry" />
        </mxCell>
        <mxCell id="fFBBc6yk1IbqUkKiWWpn-22" value="tidak" style="text;html=1;align=center;verticalAlign=middle;resizable=0;points=[];autosize=1;strokeColor=none;fillColor=none;" parent="1" vertex="1">
          <mxGeometry x="635" y="1098" width="50" height="30" as="geometry" />
        </mxCell>
        <mxCell id="fFBBc6yk1IbqUkKiWWpn-23" value="ya" style="text;html=1;align=center;verticalAlign=middle;resizable=0;points=[];autosize=1;strokeColor=none;fillColor=none;" parent="1" vertex="1">
          <mxGeometry x="680" y="1168" width="40" height="30" as="geometry" />
        </mxCell>
        <mxCell id="fFBBc6yk1IbqUkKiWWpn-24" value="ya" style="text;html=1;align=center;verticalAlign=middle;resizable=0;points=[];autosize=1;strokeColor=none;fillColor=none;" parent="1" vertex="1">
          <mxGeometry x="710" y="1568" width="40" height="30" as="geometry" />
        </mxCell>
        <mxCell id="fFBBc6yk1IbqUkKiWWpn-25" value="tidak" style="text;html=1;align=center;verticalAlign=middle;resizable=0;points=[];autosize=1;strokeColor=none;fillColor=none;" parent="1" vertex="1">
          <mxGeometry x="615" y="1478" width="50" height="30" as="geometry" />
        </mxCell>
        <mxCell id="fFBBc6yk1IbqUkKiWWpn-26" value="tidak" style="text;html=1;align=center;verticalAlign=middle;resizable=0;points=[];autosize=1;strokeColor=none;fillColor=none;" parent="1" vertex="1">
          <mxGeometry x="875" y="1661" width="50" height="30" as="geometry" />
        </mxCell>
        <mxCell id="fFBBc6yk1IbqUkKiWWpn-27" value="ya" style="text;html=1;align=center;verticalAlign=middle;resizable=0;points=[];autosize=1;strokeColor=none;fillColor=none;" parent="1" vertex="1">
          <mxGeometry x="920" y="1791" width="40" height="30" as="geometry" />
        </mxCell>
      </root>
    </mxGraphModel>
  </diagram>
</mxfile>
